<mxfile host="app.diagrams.net" modified="2022-06-07T12:33:06.417Z" agent="5.0 (Macintosh; Intel Mac OS X 10_15_7) AppleWebKit/537.36 (KHTML, like Gecko) Chrome/102.0.5005.61 Safari/537.36" etag="CqoUaF1QK4bzqzS6lF33" version="19.0.2" type="github">
  <diagram id="_YLpVE-XvcJEbUG1B2LH" name="Page-1">
    <mxGraphModel dx="820" dy="794" grid="1" gridSize="10" guides="1" tooltips="1" connect="1" arrows="1" fold="1" page="1" pageScale="1" pageWidth="827" pageHeight="1169" math="0" shadow="0">
      <root>
        <mxCell id="0" />
        <mxCell id="1" parent="0" />
      </root>
    </mxGraphModel>
  </diagram>
</mxfile>
